<?xml version="1.0" encoding="UTF-8"?>
<svg width="48mm" height="48mm" version="1.1" viewBox="0 0 48 48" xmlns="http://www.w3.org/2000/svg">
    <g transform="translate(-138.12 -79.91)">
        <g transform="translate(19.831 -11.225)">
            <circle cx="142.29" cy="115.13" r="24" fill="#fff"/>
            <g transform="translate(2.8146 1.3451)">
                <g transform="translate(30.875 -77.276)">
                    <polyline transform="matrix(.26458 0 0 .26458 53.268 165.81)" points="190.45 100.99 190.45 20.463" fill="none" stroke="#000" stroke-linejoin="bevel" stroke-width="2.73"/>
                    <path d="m103.76 191.25c-0.47163-0.86943-1.4682-1.341-2.678-1.341-0.88992 0-1.8619 0.26246-2.8092 0.76278-1.7307 0.91864-2.7805 2.4647-2.7805 3.8058 0 0.36499 0.07792 0.73409 0.26247 1.0745 0.47162 0.86534 1.4682 1.3123 2.678 1.3123 0.88995 0 1.8619-0.23375 2.8092-0.73409 1.7306-0.91863 2.7805-2.4688 2.7805-3.8058 0-0.36909-0.0779-0.73408-0.26246-1.0745" stroke-width=".26247"/>
                    <path d="m104.22 172.14c-0.0246-0.0779-0.26246-0.99655-0.26246-1.0499-0.0246-0.10663-0.18455-0.18455-0.31578-0.18455-0.18455 0-0.34039 0.15994-0.34039 0.34039v5.9342c0 0.13123 0.10663 0.23378 0.20915 0.28708 1.1032 0.3404 3.3875 1.7881 5.0935 4.6998 0.47163 0.81202 1.2344 1.9152 1.2344 4.1216 0 1.8906-0.29118 3.8837-0.7628 5.7209-0.0779 0.29118-0.15583 0.55365 0.13123 0.65617 0.28709 0.10664 0.3937-0.10252 0.50034-0.36499 0.94323-2.313 1.1811-4.7285 1.1811-6.3525v-0.50034c-0.13123-3.3874-2.0751-5.8809-2.0751-5.8809 0.0779 0-2.4155-3.2275-3.125-4.3307-0.96785-1.4969-1.4436-2.9897-1.4682-3.0963" stroke-width=".26247"/>
                </g>
                <g transform="matrix(8.5189 -2.2826 2.2826 8.5189 -2025.7 -127.28)">
                <path d="m230.99 91.21c-0.019-0.17714-0.12969-0.38906-0.41437-0.38906-0.446 0-0.90149 0.45233-0.90149 0.95527 0 0.19295 0.13285 0.55671 0.56304 0.55671 0.7465 0 1.1198-1.2361 1.1198-1.6695 2e-5 -0.51756-0.36604-0.87451-0.77092-0.87451-0.45866 0-0.59051 0.42319-0.59051 0.50859 0 0.02847 0.019 0.09806 0.10754 0.09806 0.11071 0 0.15816-0.10122 0.15816-0.15499 0-0.09806-0.0981-0.09806-0.13918-0.09806 0.12969-0.23407 0.37009-0.25622 0.4555-0.25622 0.27835 0 0.53638 0.24958 0.56116 0.62213 0.0217 0.32615-0.12469 0.62365-0.14557 0.70155zm-0.74333 1.0375c-0.29734 0-0.34795-0.23407-0.34795-0.36692 0-0.13918 0.0886-0.46498 0.13602-0.58202 0.0411-0.0949 0.22142-0.41437 0.55038-0.41437 0.28785 0 0.35427 0.24989 0.35427 0.4207 0 0.23407-0.2056 0.94262-0.69272 0.94262z" stroke-width=".26458"/>
                </g>
            </g>
        </g>
    </g>
</svg>
